<svg preserveAspectRatio="none" width="100%" height="100%" overflow="visible" style="display: block;" viewBox="0 0 60.9524 60.9524" fill="none" xmlns="http://www.w3.org/2000/svg">
<g id="arrow-circle-up">
<path id="Vector" d="M30.4762 5.07937C16.4825 5.07937 5.07937 16.4825 5.07937 30.4762C5.07937 44.4698 16.4825 55.873 30.4762 55.873C44.4698 55.873 55.873 44.4698 55.873 30.4762C55.873 16.4825 44.4698 5.07937 30.4762 5.07937ZM40.7873 35.0222C40.4064 35.4032 39.9238 35.581 39.4413 35.581C38.9587 35.581 38.4762 35.4032 38.0952 35.0222L30.4762 27.4032L22.8571 35.0222C22.1206 35.7587 20.9016 35.7587 20.1651 35.0222C19.4286 34.2857 19.4286 33.0667 20.1651 32.3302L29.1302 23.3651C29.8667 22.6286 31.0857 22.6286 31.8222 23.3651L40.7873 32.3302C41.5238 33.0921 41.5238 34.2857 40.7873 35.0222Z" fill="url(#paint0_linear_0_12)"/>
<g id="Vector_2" opacity="0">
</g>
</g>
<defs>
<linearGradient id="paint0_linear_0_12" x1="5.07937" y1="30.4762" x2="55.873" y2="30.4762" gradientUnits="userSpaceOnUse">
<stop stop-color="#D9EBF8"/>
<stop offset="1" stop-color="#F4FAFD"/>
</linearGradient>
</defs>
</svg>
