<svg preserveAspectRatio="none" width="100%" height="100%" overflow="visible" style="display: block;" viewBox="0 0 824 540.368" fill="none" xmlns="http://www.w3.org/2000/svg">
<g id="Group" opacity="0.06">
<path id="Vector" d="M599.4 0.669529L527.228 91.4003C494.83 130.456 447.701 155.533 397.614 156.283C394.656 157.034 392.448 157.034 389.57 157.034H198.807C195.849 157.034 192.891 157.034 189.993 157.724C167.158 162.208 150.24 182.111 150.24 205.666C150.24 229.302 167.158 249.205 189.993 253.608C192.891 254.359 195.849 254.359 198.807 254.359H386.612L259.957 393.721L251.832 402.547H200.995C197.348 402.547 193.64 402.547 189.993 401.796C176.296 401.106 163.025 399.118 150.24 395.811C63.7026 373.696 0 295.179 0 202.034C0 197.145 0.141827 192.255 0.486275 187.366C1.37779 173.874 3.58631 160.645 7.37523 148.168C30.2101 62.6919 108.298 0 201.036 0C207.702 0 215.077 8.04183e-06 221.682 0.689822H599.42L599.4 0.669529Z" fill="var(--fill-0, #F5F7FC)"/>
<path id="Vector_2" d="M224.6 539.698L296.772 448.967C329.17 409.912 376.299 384.835 426.386 384.084C429.344 383.334 431.553 383.334 434.43 383.334H625.193C628.151 383.334 631.109 383.334 634.007 382.644C656.842 378.16 673.76 358.257 673.76 334.702C673.76 311.147 656.842 291.162 634.007 286.76C631.109 286.009 628.151 286.009 625.193 286.009H437.388L564.043 146.646L572.168 137.821H623.005C626.652 137.821 630.36 137.821 634.007 138.571C647.704 139.261 660.975 141.249 673.76 144.557C760.298 166.671 824 245.188 824 338.333C824 343.223 823.858 348.112 823.514 353.002C822.622 366.494 820.414 379.722 816.625 392.2C793.79 477.676 715.702 540.368 622.964 540.368C616.298 540.368 608.923 540.368 602.318 539.678H224.58L224.6 539.698Z" fill="url(#paint0_linear_0_4)"/>
</g>
<defs>
<linearGradient id="paint0_linear_0_4" x1="224.6" y1="339.104" x2="824" y2="339.104" gradientUnits="userSpaceOnUse">
<stop stop-color="#6C91AE"/>
<stop offset="1" stop-color="#CFE5F4"/>
</linearGradient>
</defs>
</svg>
