<svg width="130" height="85" viewBox="0 0 130 85" fill="none" xmlns="http://www.w3.org/2000/svg">
<path d="M94.1768 0.105195L82.8372 14.3607C77.7468 20.497 70.3421 24.4371 62.4725 24.555C62.0077 24.6729 61.6607 24.6729 61.2087 24.6729H31.2363C30.7715 24.6729 30.3067 24.6729 29.8514 24.7813C26.2637 25.4858 23.6055 28.613 23.6055 32.3139C23.6055 36.0276 26.2637 39.1547 29.8514 39.8465C30.3067 39.9644 30.7715 39.9644 31.2363 39.9644H60.7439L40.844 61.8609L39.5674 63.2475H31.5801C31.0071 63.2475 30.4245 63.2475 29.8514 63.1296C27.6994 63.0212 25.6142 62.7088 23.6055 62.1892C10.0088 58.7146 0 46.3781 0 31.7433C0 30.9751 0.0222836 30.2068 0.0764027 29.4386C0.216476 27.3187 0.563475 25.2404 1.15878 23.2799C4.74656 9.85005 17.0157 0 31.5864 0C32.6338 0 33.7926 1.26352e-06 34.8304 0.108384H94.1799L94.1768 0.105195Z" fill="#0C1728"/>
<path d="M35.2888 84.7966L46.6284 70.5411C51.7187 64.4048 59.1235 60.4648 66.9931 60.3468C67.4579 60.2289 67.8049 60.2289 68.2569 60.2289H98.2293C98.6941 60.2289 99.1589 60.2289 99.6141 60.1205C103.202 59.416 105.86 56.2889 105.86 52.5879C105.86 48.887 103.202 45.7471 99.6141 45.0553C99.1589 44.9374 98.6941 44.9374 98.2293 44.9374H68.7217L88.6216 23.041L89.8982 21.6543H97.8855C98.4585 21.6543 99.0411 21.6543 99.6141 21.7722C101.766 21.8806 103.851 22.193 105.86 22.7126C119.457 26.1872 129.466 38.5237 129.466 53.1585C129.466 53.9268 129.443 54.695 129.389 55.4632C129.249 57.5831 128.902 59.6615 128.307 61.6219C124.719 75.0518 112.45 84.9018 97.8791 84.9018C96.8318 84.9018 95.673 84.9018 94.6352 84.7934H35.2856L35.2888 84.7966Z" fill="#0C1728"/>
</svg>
