<svg width="369" height="84" viewBox="0 0 369 84" fill="none" xmlns="http://www.w3.org/2000/svg">
<g clip-path="url(#clip0_306_215)">
<path d="M167.497 9.71582V13.141H151L153.125 10.9256V31.8613H149.23V9.71582H167.497ZM151.119 19.4002H167.023V22.8253H151.119V19.4002Z" fill="#0C1728"/>
<path d="M182.253 9.71582L192.875 31.8613H188.714L179.064 11.1913H180.57L170.922 31.8613H166.759L177.383 9.71582H182.253ZM171.982 26.782V23.5631H187.446V26.782H171.982Z" fill="#0C1728"/>
<path d="M208.987 20.8778L209.369 20.021C211.12 20.0423 212.552 20.3059 213.663 20.8183C214.775 21.3307 215.59 22.0195 216.113 22.8849C216.634 23.7523 216.895 24.7261 216.895 25.8083C216.895 26.9882 216.615 28.0322 216.054 28.9379C215.493 29.8436 214.67 30.558 213.589 31.0789C212.507 31.6019 211.158 31.8613 209.546 31.8613H194.791L196.531 20.493L194.791 9.71582H209.014C211.061 9.71582 212.637 10.1942 213.75 11.1488C214.862 12.1034 215.418 13.4174 215.418 15.0906C215.418 15.9772 215.208 16.8382 214.783 17.6759C214.358 18.5136 213.682 19.2216 212.748 19.802C211.813 20.3846 210.559 20.7439 208.987 20.88V20.8778ZM198.718 30.7684L197.213 28.7316H209.106C210.325 28.7316 211.275 28.451 211.953 27.8918C212.633 27.3305 212.971 26.529 212.971 25.4851C212.971 24.3838 212.573 23.527 211.777 22.9168C210.98 22.3066 209.805 22.0025 208.249 22.0025H198.66V18.9899H207.867C208.91 18.9899 209.775 18.7007 210.463 18.1203C211.154 17.5377 211.496 16.7064 211.496 15.6242C211.496 14.8163 211.211 14.153 210.642 13.6321C210.07 13.1091 209.244 12.8497 208.162 12.8497H197.213L198.718 10.8129L200.284 20.4973L198.718 30.7727V30.7684Z" fill="#0C1728"/>
<path d="M220.556 9.71582H224.451V31.8613H220.556V9.71582Z" fill="#0C1728"/>
<path d="M242.628 9.71673L253.25 31.8622H249.089L239.439 11.1922H240.945L231.297 31.8622H227.134L237.758 9.71673H242.628ZM232.357 26.7829V23.564H247.821V26.7829H232.357ZM241.831 3.42773H246.374L241.534 7.91593H237.52L241.829 3.42773H241.831Z" fill="#0C1728"/>
<path d="M276.446 29.4992L274.852 29.6756V9.71582H278.628V31.8613H273.671L258.147 11.8993L259.711 11.7229V31.8613H255.935V9.71582H261.011L276.446 29.4992Z" fill="#0C1728"/>
<path d="M148.204 62.0565H159.07C159.18 62.6645 159.497 63.1833 160.022 63.6128C160.549 64.0422 161.265 64.3739 162.178 64.6099C163.092 64.8459 164.184 64.9628 165.455 64.9628C167.114 64.9628 168.406 64.797 169.332 64.4653C170.259 64.1337 170.722 63.5936 170.722 62.8474C170.722 62.3499 170.459 61.9289 169.934 61.5823C169.409 61.2358 168.33 61.0083 166.7 60.8977L161.558 60.5661C156.886 60.262 153.511 59.267 151.438 57.5789C149.364 55.8929 148.327 53.6648 148.327 50.8966C148.327 48.5728 148.992 46.638 150.318 45.0881C151.646 43.5382 153.505 42.3773 155.895 41.6013C158.286 40.8253 161.086 40.4404 164.293 40.4404C167.499 40.4404 170.189 40.8763 172.609 41.748C175.029 42.6197 176.95 43.8443 178.373 45.4198C179.797 46.9952 180.577 48.8364 180.717 50.9391H169.851C169.768 50.4416 169.498 50.0121 169.041 49.6528C168.585 49.2935 167.941 49.0171 167.112 48.8236C166.283 48.6302 165.274 48.5345 164.084 48.5345C162.563 48.5345 161.367 48.6854 160.496 48.9916C159.624 49.2956 159.189 49.7953 159.189 50.4841C159.189 50.9561 159.444 51.3558 159.956 51.6896C160.468 52.0213 161.456 52.2424 162.922 52.353L168.727 52.7271C171.767 52.9227 174.23 53.3714 176.108 54.0751C177.989 54.781 179.366 55.7547 180.237 57.0006C181.108 58.2465 181.543 59.7815 181.543 61.6079C181.543 63.904 180.866 65.9111 179.51 67.6247C178.157 69.3405 176.255 70.6757 173.807 71.6303C171.362 72.5828 168.506 73.0612 165.242 73.0612C161.979 73.0612 158.911 72.604 156.367 71.6919C153.822 70.7798 151.839 69.4936 150.416 67.8331C148.99 66.1726 148.253 64.2506 148.197 62.065L148.204 62.0565Z" fill="#0C1728"/>
<path d="M233.226 41.1846V72.2979H223.061V50.4607L214.568 72.2979H203.989L195.482 50.567V72.2979H185.315V41.1846H201.875L209.316 61.4867L216.683 41.1846H233.226Z" fill="#0C1728"/>
<path d="M263.361 60.9978C263.665 60.8915 263.939 60.7682 264.228 60.647C266.085 59.7796 267.547 58.5762 268.58 57.0072C269.615 55.453 270.133 53.6416 270.133 51.6005C270.133 49.5594 269.617 47.6715 268.58 46.1173C267.545 44.5631 266.085 43.3597 264.228 42.4923C262.356 41.61 260.181 41.1826 257.684 41.1826H238.202V72.2959H248.902V61.9248H252.083L259.146 72.2959H271.382L263.361 60.9957V60.9978ZM248.902 48.6941H256.025C257.091 48.6941 257.897 48.9386 258.474 49.4404C259.052 49.9421 259.341 50.6586 259.341 51.6026C259.341 52.5466 259.052 53.2631 258.474 53.75C257.897 54.2517 257.089 54.4962 256.025 54.4962H248.902V48.6941Z" fill="#0C1728"/>
<path d="M274.529 41.1807H285.229V72.3046H274.529V41.1807Z" fill="#0C1728"/>
<path d="M317.528 60.6173L317.209 60.3877L317.3 61.0277C317.377 60.8895 317.453 60.7683 317.528 60.6173ZM316.797 61.7293H317.39L317.298 61.0447C317.145 61.2892 316.98 61.5167 316.797 61.7293ZM317.298 61.0447C317.145 61.2892 316.98 61.5167 316.797 61.7293H317.39L317.298 61.0447Z" fill="#0C1728"/>
<path d="M309.203 55.6677V61.7292H316.797C316.98 61.5166 317.147 61.287 317.298 61.0446L317.39 61.7292H316.797C316.691 61.8504 316.584 61.9737 316.478 62.08C315.641 62.9177 314.545 63.5428 313.191 63.9382C311.821 64.3486 310.284 64.5484 308.534 64.5484C306.783 64.5484 305.185 64.2742 303.876 63.7107C302.567 63.1622 301.547 62.3096 300.846 61.1382C300.147 59.9816 299.78 58.5188 299.78 56.752C299.78 54.9852 300.098 53.5841 300.723 52.4722C301.348 51.3602 302.23 50.5374 303.388 50.0059C304.56 49.4574 305.944 49.198 307.541 49.198C308.835 49.198 310.023 49.3341 311.073 49.6232C312.125 49.9124 313.006 50.3397 313.737 50.8712C314.483 51.4049 314.972 52.0746 315.214 52.8358H325.959C325.457 50.4141 324.437 48.2668 322.869 46.4086C321.301 44.5504 319.247 43.0897 316.691 42.0373C314.135 40.9721 311.06 40.4385 307.452 40.4385C304.896 40.4385 302.491 40.7744 300.283 41.4739C298.078 42.1585 296.129 43.1939 294.44 44.5652C292.751 45.9366 291.442 47.6268 290.499 49.6679C289.555 51.7089 289.084 54.054 289.084 56.7499C289.084 59.4458 289.555 61.7909 290.499 63.817C291.442 65.8581 292.736 67.5484 294.379 68.9197C296.023 70.291 297.91 71.3264 300.056 72.011C302.202 72.7105 304.469 73.0464 306.874 73.0464C309.539 73.0464 311.821 72.6659 313.769 71.8898C315.594 71.1585 317.118 70.1698 318.335 68.9346L318.777 72.3002H326.203V55.6698H309.203V55.6677ZM317.298 61.0297L317.207 60.3898L317.526 60.6194C317.449 60.7725 317.373 60.8937 317.298 61.0297Z" fill="#0C1728"/>
<path d="M355.361 41.1846H341.085L327.448 72.2979H338.848L340.979 67.0741H355.467L357.599 72.2979H368.998L355.361 41.1846ZM344.436 58.5761L348.224 49.2701L352.015 58.5761H344.436Z" fill="#0C1728"/>
<path d="M93.2322 0.106305L82.0071 14.2066C76.9672 20.2766 69.6367 24.1759 61.8474 24.2928C61.3863 24.4097 61.0442 24.4097 60.5959 24.4097H30.9237C30.4626 24.4097 30.0037 24.4097 29.5532 24.516C26.0006 25.2113 23.3681 28.3069 23.3681 31.968C23.3681 35.6398 26.0006 38.7354 29.5532 39.42C30.0016 39.5369 30.4626 39.5369 30.9237 39.5369H60.1348L40.4362 61.1976L39.1741 62.5689H31.2658C30.6985 62.5689 30.1205 62.5689 29.5532 62.452C27.4242 62.3457 25.359 62.0353 23.3681 61.5208C9.90774 58.085 0 45.8791 0 31.4046C0 30.6434 0.0212476 29.8844 0.0743665 29.1233C0.212476 27.0248 0.556686 24.9689 1.14524 23.032C4.69784 9.74391 16.8429 0 31.2658 0C32.3027 0 33.4479 0 34.4763 0.106305H93.2322Z" fill="#0C1728"/>
<path d="M34.9331 83.8933L46.1582 69.793C51.1981 63.723 58.5285 59.8237 66.3179 59.7068C66.7789 59.5899 67.121 59.5899 67.5694 59.5899H97.2416C97.7026 59.5899 98.1616 59.5899 98.612 59.4836C102.165 58.7883 104.797 55.6927 104.797 52.0316C104.797 48.3598 102.165 45.2642 98.612 44.5796C98.1637 44.4627 97.7026 44.4627 97.2416 44.4627H68.0304L87.729 22.802L88.9911 21.4307H96.8995C97.4668 21.4307 98.0447 21.4307 98.612 21.5476C100.741 21.6539 102.806 21.9643 104.797 22.4788C118.258 25.9167 128.167 38.1227 128.167 52.5971C128.167 53.3583 128.146 54.1173 128.093 54.8784C127.955 56.9769 127.611 59.0328 127.022 60.9697C123.47 74.2578 111.324 83.9996 96.9016 83.9996C95.8647 83.9996 94.7195 83.9996 93.6911 83.8933H34.9331Z" fill="#0C1728"/>
</g>
<defs>
<clipPath id="clip0_306_215">
<rect width="369" height="84" fill="white"/>
</clipPath>
</defs>
</svg>
